<mxfile host="app.diagrams.net" modified="2023-08-01T02:41:05.580Z" agent="Mozilla/5.0 (Android 10; Mobile; rv:92.0) Gecko/92.0 Firefox/92.0" version="21.6.6" etag="4zE9uMGajzQMez8EoYsk" type="github">
  <diagram name="Page-1" id="k2HZ4zxh7CNhWlsPm0wo">
    <mxGraphModel>
      <root>
        <mxCell id="0" />
        <mxCell id="1" parent="0" />
      </root>
    </mxGraphModel>
  </diagram>
</mxfile>
